<svg xmlns="http://www.w3.org/2000/svg" xmlns:xlink="http://www.w3.org/1999/xlink" width="500" zoomAndPan="magnify" viewBox="0 0 375 374.999991" height="500" preserveAspectRatio="xMidYMid meet" version="1.0"><defs><g/><clipPath id="64bebb3c9f"><path d="M 3.066406 0 L 371.003906 0 L 371.003906 367.9375 L 3.066406 367.9375 Z M 3.066406 0 " clip-rule="nonzero"/></clipPath><clipPath id="72384dbc72"><path d="M 187.035156 0 C 85.429688 0 3.066406 82.367188 3.066406 183.96875 C 3.066406 285.570312 85.429688 367.9375 187.035156 367.9375 C 288.636719 367.9375 371.003906 285.570312 371.003906 183.96875 C 371.003906 82.367188 288.636719 0 187.035156 0 Z M 187.035156 0 " clip-rule="nonzero"/></clipPath></defs><g clip-path="url(#64bebb3c9f)"><g clip-path="url(#72384dbc72)"><path fill="#93e9be" d="M 3.066406 0 L 371.003906 0 L 371.003906 367.9375 L 3.066406 367.9375 Z M 3.066406 0 " fill-opacity="1" fill-rule="nonzero"/></g></g><g fill="#333333" fill-opacity="1"><g transform="translate(94.57219, 235.403267)"><g><path d="M 53.578125 -108.78125 L 75.984375 -108.78125 L 75.984375 -33.46875 C 75.984375 -26.550781 74.453125 -20.4375 71.390625 -15.125 C 68.328125 -9.820312 64.003906 -5.722656 58.421875 -2.828125 C 52.847656 0.0546875 46.550781 1.5 39.53125 1.5 C 28.019531 1.5 19.050781 -1.425781 12.625 -7.28125 C 6.195312 -13.132812 2.984375 -21.414062 2.984375 -32.125 L 25.546875 -32.125 C 25.546875 -26.800781 26.664062 -22.867188 28.90625 -20.328125 C 31.15625 -17.785156 34.695312 -16.515625 39.53125 -16.515625 C 43.8125 -16.515625 47.222656 -17.984375 49.765625 -20.921875 C 52.304688 -23.859375 53.578125 -28.039062 53.578125 -33.46875 Z M 53.578125 -108.78125 "/></g></g></g><g fill="#333333" fill-opacity="1"><g transform="translate(180.041053, 235.403267)"><g><path d="M 9.71875 0 L 9.71875 -108.78125 L 43.1875 -108.78125 C 52.75 -108.78125 61.300781 -106.625 68.84375 -102.3125 C 76.394531 -98.007812 82.285156 -91.882812 86.515625 -83.9375 C 90.753906 -76 92.875 -66.972656 92.875 -56.859375 L 92.875 -51.859375 C 92.875 -41.742188 90.789062 -32.75 86.625 -24.875 C 82.46875 -17.007812 76.601562 -10.910156 69.03125 -6.578125 C 61.46875 -2.242188 52.925781 -0.0507812 43.40625 0 Z M 32.125 -90.625 L 32.125 -18 L 42.953125 -18 C 51.722656 -18 58.421875 -20.863281 63.046875 -26.59375 C 67.679688 -32.320312 70.050781 -40.515625 70.15625 -51.171875 L 70.15625 -56.9375 C 70.15625 -67.988281 67.863281 -76.363281 63.28125 -82.0625 C 58.695312 -87.769531 52 -90.625 43.1875 -90.625 Z M 32.125 -90.625 "/></g></g></g><path stroke-linecap="butt" transform="matrix(0.75, -0.000000000000000186, 0.000000000000000186, 0.75, 88.474796, 251.808324)" fill="none" stroke-linejoin="miter" d="M 15.002356 2.000359 L 249.064871 2.000359 " stroke="#333333" stroke-width="4" stroke-opacity="1" stroke-miterlimit="4"/><path stroke-linecap="round" transform="matrix(0.75, -0.000000000000000186, 0.000000000000000186, 0.75, 88.474796, 251.808324)" fill-opacity="1" fill="#333333" fill-rule="nonzero" stroke-linejoin="round" d="M 2.002355 2.000359 C 2.002355 -1.312141 4.684647 -3.999641 8.002355 -3.999641 C 11.314856 -3.999641 14.002356 -1.312141 14.002356 2.000359 C 14.002356 5.31286 11.314856 8.00036 8.002355 8.00036 C 4.684647 8.00036 2.002355 5.31286 2.002355 2.000359 " stroke="#333333" stroke-width="4" stroke-opacity="1" stroke-miterlimit="4"/><path stroke-linecap="round" transform="matrix(0.75, -0.000000000000000186, 0.000000000000000186, 0.75, 88.474796, 251.808324)" fill-opacity="1" fill="#333333" fill-rule="nonzero" stroke-linejoin="round" d="M 262.064872 2.000359 C 262.064872 5.31286 259.38258 8.00036 256.064872 8.00036 C 252.752372 8.00036 250.064871 5.31286 250.064871 2.000359 C 250.064871 -1.312141 252.752372 -3.999641 256.064872 -3.999641 C 259.38258 -3.999641 262.064872 -1.312141 262.064872 2.000359 " stroke="#333333" stroke-width="4" stroke-opacity="1" stroke-miterlimit="4"/></svg>